<svg width="190" height="190" viewBox="0 0 180 86" fill="none" xmlns="http://www.w3.org/2000/svg">
<line y1="66.4767" x2="180" y2="66.4767" stroke="white"/>
<line x1="19.8837" y1="75.8954" x2="169.535" y2="75.8954" stroke="white"/>
<line x1="19.8837" y1="85.314" x2="170.581" y2="85.314" stroke="white"/>
<line x1="0.546513" y1="65.9302" x2="0.546513" stroke="white"/>
<line y1="0.546509" x2="10.4651" y2="0.546509" stroke="white"/>
<line x1="9.9186" y1="1.04651" x2="9.9186" y2="65.9302" stroke="white"/>
<line x1="19.8837" y1="9.91861" y2="9.91861" stroke="white"/>
<line x1="19.3372" y1="10.4651" x2="19.3372" y2="85.8139" stroke="white"/>
<line y1="19.3837" x2="18.8372" y2="19.3837" stroke="white"/>
<line x1="1.04651" y1="28.8023" x2="178.953" y2="28.8023" stroke="white"/>
<line x1="1.04651" y1="38.2209" x2="178.953" y2="38.2209" stroke="white"/>
<line x1="1.04651" y1="47.6395" x2="178.953" y2="47.6395" stroke="white"/>
<line x1="1.04651" y1="57.0581" x2="178.953" y2="57.0581" stroke="white"/>
<line x1="28.7558" y1="28.2558" x2="28.7558" y2="84.7674" stroke="white"/>
<line x1="38.1744" y1="28.2558" x2="38.1744" y2="84.7674" stroke="white"/>
<line x1="57.0116" y1="28.2558" x2="57.0116" y2="84.7674" stroke="white"/>
<line x1="66.4302" y1="28.2558" x2="66.4302" y2="84.7674" stroke="white"/>
<line x1="75.8488" y1="28.2558" x2="75.8488" y2="84.7674" stroke="white"/>
<line x1="85.2674" y1="28.2558" x2="85.2674" y2="84.7674" stroke="white"/>
<line x1="94.6861" y1="28.2558" x2="94.6861" y2="84.7674" stroke="white"/>
<line x1="104.105" y1="28.2558" x2="104.105" y2="84.7674" stroke="white"/>
<line x1="113.523" y1="28.2558" x2="113.523" y2="84.7674" stroke="white"/>
<line x1="122.942" y1="9.41861" x2="122.942" y2="84.7674" stroke="white"/>
<line x1="132.36" y1="9.41861" x2="132.36" y2="84.7674" stroke="white"/>
<line x1="141.779" y1="9.41861" x2="141.779" y2="85.8139" stroke="white"/>
<line x1="151.198" y1="9.41861" x2="151.198" y2="84.7674" stroke="white"/>
<line x1="160.616" y1="9.41861" x2="160.616" y2="84.7674" stroke="white"/>
<line x1="170.035" y1="1.04651" x2="170.035" y2="84.7674" stroke="white"/>
<line x1="179.453" y1="1.04651" x2="179.453" y2="65.9302" stroke="white"/>
<line x1="47.593" y1="28.2558" x2="47.593" y2="84.7674" stroke="white"/>
<line x1="178.953" y1="19.3372" x2="122.442" y2="19.3372" stroke="white"/>
<line x1="180" y1="9.91861" x2="122.442" y2="9.91861" stroke="white"/>
<line x1="169.535" y1="0.546509" x2="180" y2="0.546509" stroke="white"/>
<rect x="1.04651" y="1.04651" width="8.37209" height="8.37209" fill="#8C0250"/>
<rect x="1.04651" y="38.7209" width="8.37209" height="8.37209" fill="#E5B80B"/>
<rect x="1.04651" y="57.5581" width="8.37209" height="8.37209" fill="#E5B80B"/>
<rect x="1.04651" y="48.1395" width="8.37209" height="8.37209" fill="#E5B80B"/>
<rect x="1.04651" y="29.3023" width="8.37209" height="8.37209" fill="#E5B80B"/>
<rect x="1.04651" y="19.8837" width="8.37209" height="8.37209" fill="#E5B80B"/>
<rect x="1.04651" y="10.4651" width="8.37209" height="8.37209" fill="#E5B80B"/>
<rect x="10.4651" y="38.7209" width="8.37209" height="8.37209" fill="#FF6600"/>
<rect x="10.4651" y="57.5581" width="8.37209" height="8.37209" fill="#FF6600"/>
<rect x="10.4651" y="48.1395" width="8.37209" height="8.37209" fill="#FF6600"/>
<rect x="10.4651" y="29.3023" width="8.37209" height="8.37209" fill="#FF6600"/>
<rect x="10.4651" y="19.8837" width="8.37209" height="8.37209" fill="#FF6600"/>
<rect x="10.4651" y="10.4651" width="8.37209" height="8.37209" fill="#FF6600"/>
<rect x="161.163" y="10.4651" width="8.37209" height="8.37209" fill="#304EE6"/>
<rect x="161.163" y="48.1395" width="8.37209" height="8.37209" fill="#304EE6"/>
<rect x="161.163" y="57.5581" width="8.37209" height="8.37209" fill="#304EE6"/>
<rect x="161.163" y="38.7209" width="8.37209" height="8.37209" fill="#304EE6"/>
<rect x="161.163" y="29.3023" width="8.37209" height="8.37209" fill="#304EE6"/>
<rect x="161.163" y="19.8837" width="8.37209" height="8.37209" fill="#304EE6"/>
<rect x="170.581" y="1.04651" width="8.37209" height="8.37209" fill="#9400D3"/>
<rect x="170.581" y="38.7209" width="8.37209" height="8.37209" fill="#9400D3"/>
<rect x="170.581" y="57.5581" width="8.37209" height="8.37209" fill="#9400D3"/>
<rect x="170.581" y="48.1395" width="8.37209" height="8.37209" fill="#9400D3"/>
<rect x="170.581" y="29.3023" width="8.37209" height="8.37209" fill="#9400D3"/>
<rect x="170.581" y="19.8837" width="8.37209" height="8.37209" fill="#9400D3"/>
<rect x="170.581" y="10.4651" width="8.37209" height="8.37209" fill="#9400D3"/>
<rect x="142.326" y="10.4651" width="8.37209" height="8.37209" fill="#008000"/>
<rect x="142.326" y="19.8837" width="8.37209" height="8.37209" fill="#008000"/>
<rect x="151.744" y="10.4651" width="8.37209" height="8.37209" fill="#008000"/>
<rect x="151.744" y="29.3023" width="8.37209" height="8.37209" fill="#008000"/>
<rect x="151.744" y="19.8837" width="8.37209" height="8.37209" fill="#008000"/>
<rect x="132.907" y="10.4651" width="8.37209" height="8.37209" fill="#008000"/>
<rect x="123.488" y="48.1395" width="8.37209" height="8.37209" fill="#FF007F"/>
<rect x="123.488" y="38.7209" width="8.37209" height="8.37209" fill="#FF007F"/>
<rect x="123.488" y="29.3023" width="8.37209" height="8.37209" fill="#FF007F"/>
<rect x="123.488" y="19.8837" width="8.37209" height="8.37209" fill="#FF007F"/>
<rect x="142.326" y="48.1395" width="8.37209" height="8.37209" fill="#FF007F"/>
<rect x="151.744" y="48.1395" width="8.37209" height="8.37209" fill="#FF007F"/>
<rect x="132.907" y="48.1395" width="8.37209" height="8.37209" fill="#FF007F"/>
<rect x="132.907" y="57.5581" width="8.37209" height="8.37209" fill="#FF007F"/>
<rect x="132.907" y="38.7209" width="8.37209" height="8.37209" fill="#FF007F"/>
<rect x="123.488" y="57.5581" width="8.37209" height="8.37209" fill="#FF007F"/>
<rect x="142.326" y="57.5581" width="8.37209" height="8.37209" fill="#FF007F"/>
<rect x="151.744" y="57.5581" width="8.37209" height="8.37209" fill="#FF007F"/>
<rect x="123.488" y="10.4651" width="8.37209" height="8.37209" fill="#8DB600"/>
<rect x="142.326" y="38.7209" width="8.37209" height="8.37209" fill="#8DB600"/>
<rect x="142.326" y="29.3023" width="8.37209" height="8.37209" fill="#8DB600"/>
<rect x="151.744" y="38.7209" width="8.37209" height="8.37209" fill="#8DB600"/>
<rect x="132.907" y="29.3023" width="8.37209" height="8.37209" fill="#8DB600"/>
<rect x="132.907" y="19.8837" width="8.37209" height="8.37209" fill="#8DB600"/>
<rect x="29.3023" y="66.9767" width="8.37209" height="8.37209" fill="#054F77"/>
<rect x="38.7209" y="66.9767" width="8.37209" height="8.37209" fill="#054F77"/>
<rect x="48.1395" y="66.9767" width="8.37209" height="8.37209" fill="#054F77"/>
<rect x="66.9767" y="66.9767" width="8.37209" height="8.37209" fill="#054F77"/>
<rect x="76.3953" y="66.9767" width="8.37209" height="8.37209" fill="#054F77"/>
<rect x="85.8139" y="66.9767" width="8.37209" height="8.37209" fill="#054F77"/>
<rect x="95.2326" y="66.9767" width="8.37209" height="8.37209" fill="#054F77"/>
<rect x="104.651" y="66.9767" width="8.37209" height="8.37209" fill="#054F77"/>
<rect x="114.07" y="66.9767" width="8.37209" height="8.37209" fill="#054F77"/>
<rect x="123.488" y="66.9767" width="8.37209" height="8.37209" fill="#054F77"/>
<rect x="142.326" y="66.9767" width="8.37209" height="8.37209" fill="#054F77"/>
<rect x="151.744" y="66.9767" width="8.37209" height="8.37209" fill="#054F77"/>
<rect x="161.163" y="66.9767" width="8.37209" height="8.37209" fill="#054F77"/>
<rect x="132.907" y="66.9767" width="8.37209" height="8.37209" fill="#054F77"/>
<rect x="57.5581" y="66.9767" width="8.37209" height="8.37209" fill="#054F77"/>
<rect x="19.8837" y="66.9767" width="8.37209" height="8.37209" fill="#054F77"/>
<path d="M123.488 76.3954H131.86V84.7674H123.488V76.3954Z" fill="#4169E1"/>
<rect x="29.3023" y="76.3954" width="8.37209" height="8.37209" fill="#4169E1"/>
<rect x="38.7209" y="76.3954" width="8.37209" height="8.37209" fill="#4169E1"/>
<rect x="48.1395" y="76.3954" width="8.37209" height="8.37209" fill="#4169E1"/>
<rect x="66.9767" y="76.3954" width="8.37209" height="8.37209" fill="#4169E1"/>
<rect x="76.3953" y="76.3954" width="8.37209" height="8.37209" fill="#4169E1"/>
<rect x="85.8139" y="76.3954" width="8.37209" height="8.37209" fill="#4169E1"/>
<rect x="95.2326" y="76.3954" width="8.37209" height="8.37209" fill="#4169E1"/>
<rect x="104.651" y="76.3954" width="8.37209" height="8.37209" fill="#4169E1"/>
<rect x="114.07" y="76.3954" width="8.37209" height="8.37209" fill="#4169E1"/>
<path d="M142.326 76.3954H150.698V84.7674H142.326V76.3954Z" fill="#4169E1"/>
<path d="M151.744 76.3954H160.116V84.7674H151.744V76.3954Z" fill="#4169E1"/>
<path d="M161.163 76.3954H169.535V84.7674H161.163V76.3954Z" fill="#4169E1"/>
<path d="M132.907 76.3954H141.279V84.7674H132.907V76.3954Z" fill="#4169E1"/>
<rect x="57.5581" y="76.3954" width="8.37209" height="8.37209" fill="#4169E1"/>
<rect x="19.8837" y="76.3954" width="8.37209" height="8.37209" fill="#4169E1"/>
<rect x="29.3023" y="29.3023" width="8.37209" height="8.37209" fill="#970700"/>
<rect x="29.3023" y="57.5581" width="8.37209" height="8.37209" fill="#970700"/>
<rect x="29.3023" y="48.1395" width="8.37209" height="8.37209" fill="#970700"/>
<rect x="29.3023" y="38.7209" width="8.37209" height="8.37209" fill="#970700"/>
<rect x="38.7209" y="29.3023" width="8.37209" height="8.37209" fill="#970700"/>
<rect x="38.7209" y="57.5581" width="8.37209" height="8.37209" fill="#970700"/>
<rect x="38.7209" y="48.1395" width="8.37209" height="8.37209" fill="#970700"/>
<rect x="38.7209" y="38.7209" width="8.37209" height="8.37209" fill="#970700"/>
<rect x="48.1395" y="29.3023" width="8.37209" height="8.37209" fill="#970700"/>
<rect x="48.1395" y="57.5581" width="8.37209" height="8.37209" fill="#970700"/>
<rect x="48.1395" y="48.1395" width="8.37209" height="8.37209" fill="#970700"/>
<rect x="48.1395" y="38.7209" width="8.37209" height="8.37209" fill="#970700"/>
<rect x="66.9767" y="29.3023" width="8.37209" height="8.37209" fill="#970700"/>
<rect x="66.9767" y="57.5581" width="8.37209" height="8.37209" fill="#970700"/>
<rect x="66.9767" y="48.1395" width="8.37209" height="8.37209" fill="#970700"/>
<rect x="66.9767" y="38.7209" width="8.37209" height="8.37209" fill="#970700"/>
<rect x="76.3953" y="29.3023" width="8.37209" height="8.37209" fill="#970700"/>
<rect x="76.3953" y="57.5581" width="8.37209" height="8.37209" fill="#970700"/>
<rect x="76.3953" y="48.1395" width="8.37209" height="8.37209" fill="#970700"/>
<rect x="76.3953" y="38.7209" width="8.37209" height="8.37209" fill="#970700"/>
<rect x="85.8139" y="29.3023" width="8.37209" height="8.37209" fill="#970700"/>
<rect x="85.8139" y="57.5581" width="8.37209" height="8.37209" fill="#970700"/>
<rect x="85.8139" y="48.1395" width="8.37209" height="8.37209" fill="#970700"/>
<rect x="85.8139" y="38.7209" width="8.37209" height="8.37209" fill="#970700"/>
<rect x="95.2326" y="29.3023" width="8.37209" height="8.37209" fill="#970700"/>
<rect x="95.2326" y="57.5581" width="8.37209" height="8.37209" fill="#970700"/>
<rect x="95.2326" y="48.1395" width="8.37209" height="8.37209" fill="#970700"/>
<rect x="95.2326" y="38.7209" width="8.37209" height="8.37209" fill="#970700"/>
<rect x="104.651" y="29.3023" width="8.37209" height="8.37209" fill="#970700"/>
<rect x="104.651" y="57.5581" width="8.37209" height="8.37209" fill="#970700"/>
<rect x="104.651" y="48.1395" width="8.37209" height="8.37209" fill="#970700"/>
<rect x="104.651" y="38.7209" width="8.37209" height="8.37209" fill="#970700"/>
<rect x="114.07" y="29.3023" width="8.37209" height="8.37209" fill="#970700"/>
<rect x="114.07" y="57.5581" width="8.37209" height="8.37209" fill="#970700"/>
<rect x="114.07" y="48.1395" width="8.37209" height="8.37209" fill="#970700"/>
<rect x="114.07" y="38.7209" width="8.37209" height="8.37209" fill="#970700"/>
<rect x="57.5581" y="29.3023" width="8.37209" height="8.37209" fill="#970700"/>
<rect x="57.5581" y="57.5581" width="8.37209" height="8.37209" fill="#970700"/>
<rect x="57.5581" y="48.1395" width="8.37209" height="8.37209" fill="#970700"/>
<rect x="57.5581" y="38.7209" width="8.37209" height="8.37209" fill="#970700"/>
<rect x="19.8837" y="29.3023" width="8.37209" height="8.37209" fill="#970700"/>
<rect x="19.8837" y="57.5581" width="8.37209" height="8.37209" fill="#970700"/>
<rect x="19.8837" y="48.1395" width="8.37209" height="8.37209" fill="#970700"/>
<rect x="19.8837" y="38.7209" width="8.37209" height="8.37209" fill="#970700"/>
</svg>